<svg width="240" height="35" viewBox="0 0 240 35" fill="none" xmlns="http://www.w3.org/2000/svg">
<g clip-path="url(#clip0_39_8748)">
<path d="M6.59533 17.1984C6.59533 11.9326 10.6291 7.60052 15.7847 7.14008V1.68612C15.7847 0.75227 15.0259 0 14.0856 0H1.69261C0.758755 0 0 0.745785 0 1.68612V32.7108C0 33.6446 0.758755 34.3969 1.69261 34.3969H14.0791C15.0259 34.3969 15.7782 33.6446 15.7782 32.7108V27.2568C10.6291 26.7964 6.58885 22.4643 6.58885 17.1984H6.59533Z" fill="#22B2E9"/>
<path d="M25.2399 17.1983C25.2399 21.9065 21.4202 25.7262 16.699 25.7262C11.9779 25.7262 8.16467 21.9065 8.16467 17.1983C8.16467 12.4902 11.9844 8.65747 16.699 8.65747C21.4137 8.65747 25.2399 12.4837 25.2399 17.1983Z" fill="url(#paint0_radial_39_8748)"/>
<path d="M11.2645 16.245L11.2386 16.5758L11.3618 16.3812L11.2645 16.245Z" fill="url(#paint1_radial_39_8748)"/>
<path d="M11.4786 18.0349L11.6472 18.1127L11.5175 17.8987L11.4786 18.0349Z" fill="url(#paint2_radial_39_8748)"/>
<path d="M11.7055 17.6912L11.6277 17.5939L11.6083 17.782L11.6731 17.8663L11.7055 17.6912Z" fill="url(#paint3_radial_39_8748)"/>
<path d="M11.3164 17.5291L11.1478 17.4318L11.057 17.5939L11.2386 17.6134L11.3164 17.5291Z" fill="url(#paint4_radial_39_8748)"/>
<path d="M11.6926 15.817L11.4396 16.245C11.4396 16.245 11.6472 16.4396 11.6472 16.5498C11.8806 16.3812 11.952 16.1607 11.6926 15.8105V15.817Z" fill="url(#paint5_radial_39_8748)"/>
<path d="M11.4915 17.3345C11.5304 17.3669 11.498 17.542 11.498 17.542L11.6666 17.2372L11.5434 17.0297L11.1997 16.887C11.3488 16.9649 11.4396 17.3021 11.4915 17.3345Z" fill="url(#paint6_radial_39_8748)"/>
<path d="M15.1491 14.2022L14.9351 14.306L14.8962 14.5005L15.214 14.3773L15.4085 14.2217C15.4085 14.2217 15.3437 14.0725 15.3048 13.9363L15.0843 13.9623L15.1426 14.2022H15.1491Z" fill="url(#paint7_radial_39_8748)"/>
<path d="M11.1802 17.8144L11.0441 17.8533L11.0311 18.0738L11.4072 17.8793L11.1802 17.8144Z" fill="url(#paint8_radial_39_8748)"/>
<path d="M12.6134 14.6756H12.4837L12.2308 14.8896C12.2308 14.8896 12.1725 15.2269 12.153 15.2723C12.3411 15.1101 12.6134 14.8637 12.6134 14.8637C12.6134 14.8637 12.6459 14.6821 12.6134 14.6691V14.6756Z" fill="url(#paint9_radial_39_8748)"/>
<path d="M15.0972 13.6704L14.9416 13.5861L14.7989 13.5926L14.8897 13.7483L15.0972 13.6704Z" fill="url(#paint10_radial_39_8748)"/>
<path d="M19.3774 13.1646L19.5006 13.0284L19.0791 13.1451L19.3774 13.1646Z" fill="url(#paint11_radial_39_8748)"/>
<path d="M14.7146 23.3851C14.7146 23.3851 15.1621 23.7158 15.2075 23.7288C15.2529 23.7612 15.629 23.5083 15.629 23.5083L15.0843 23.4824L14.7211 23.3851H14.7146Z" fill="url(#paint12_radial_39_8748)"/>
<path d="M14.4747 23.4046L14.3125 23.1257L14.2736 22.9701L12.9507 21.686C12.9507 21.686 12.3735 21.686 12.2697 21.6147C12.2957 21.258 12.3281 21.1348 12.3281 21.1348C12.3281 21.1348 11.8612 20.7911 11.7055 20.7911L11.9066 21.0245L12.0557 21.232L11.8612 21.1802L12.0752 21.5368C12.0752 21.5368 12.2892 21.8352 12.354 21.8611C12.4059 21.8935 12.6718 22.1789 12.6718 22.1789L12.6459 22.5485L12.4967 22.6523L12.9377 22.9376L12.9831 23.0868L13.5992 23.3592L13.664 23.3008C13.664 23.3008 13.8002 23.2489 13.8391 23.3138C13.891 23.3786 14.1893 23.7612 14.2607 23.8455C14.332 23.9169 14.6562 24.0336 14.6562 24.0336L14.3514 23.4175H14.4747V23.4046Z" fill="url(#paint13_radial_39_8748)"/>
<path d="M15.4474 23.1127C15.3696 23.1127 15.8041 23.3592 15.7587 23.5148C15.9273 23.4046 15.6874 23.0998 15.4474 23.1127Z" fill="url(#paint14_radial_39_8748)"/>
<path d="M11.3359 18.424L11.1413 18.3332L10.8819 18.197L10.7198 18.2295L10.8949 18.3462C10.8949 18.3462 10.9662 18.4824 10.9922 18.5407C11.0246 18.6056 11.0116 18.7353 11.0116 18.7353L11.1154 19.0595L11.2775 18.9428L11.4267 18.9558L11.4656 18.7223L11.5758 18.5148L11.4656 18.2749L11.3424 18.4305L11.3359 18.424Z" fill="url(#paint15_radial_39_8748)"/>
<path d="M15.7457 14.2022C15.7457 14.2022 15.5706 14.1439 15.5252 14.2476C15.4928 14.3643 15.6225 14.3838 15.6225 14.3838L15.8106 14.3643L15.9922 14.4487C15.9922 14.4487 16.0116 14.3449 15.9597 14.2865L15.7457 14.2022Z" fill="url(#paint16_radial_39_8748)"/>
<path d="M19.2866 12.3086C19.2801 12.0362 19.319 11.7055 19.4228 11.6341C19.4941 11.5304 19.4552 11.4396 19.4552 11.4396L19.2996 11.5304L19.131 11.7119C19.131 11.7119 19.2023 11.7963 19.131 11.887C19.0466 11.9584 18.7678 12.1529 18.8521 12.1918C18.9494 12.2502 18.7159 12.4188 18.7159 12.4188C18.7872 12.4512 18.5862 12.5096 18.6251 12.6458C18.7613 12.6717 18.8586 12.6069 18.8586 12.7431C18.9105 12.5161 18.9364 12.354 19.0402 12.3086C19.131 12.2567 19.2542 12.2437 19.2866 12.3151V12.3086Z" fill="url(#paint17_radial_39_8748)"/>
<path d="M18.5019 12.7625C18.4046 12.996 18.2425 13.0608 18.2425 13.0608L18.1841 13.0219L17.9896 13.0868L17.9636 13.2684C17.9636 13.2684 18.0804 13.3527 18.0739 13.2684C18.0544 13.1841 18.1517 13.1841 18.1971 13.2165C18.236 13.2165 18.3787 13.4759 18.3787 13.4759L18.5473 13.2878L18.8132 13.3592L18.9299 13.1711L18.7224 13.0479C18.7224 13.0479 18.7029 12.8728 18.5019 12.769V12.7625Z" fill="url(#paint18_radial_39_8748)"/>
<path d="M11.1738 19.9869L11.0441 20.4538L11.271 20.3695L11.3748 20.175C11.3748 20.175 11.1673 20.2593 11.1673 19.9869H11.1738Z" fill="url(#paint19_radial_39_8748)"/>
<path d="M17.8015 13.6315C17.7367 13.7418 17.4189 13.8585 17.3411 13.9039C17.2568 13.9623 16.6342 14.1698 16.9195 13.8715C16.7963 13.8715 16.7055 13.9752 16.7055 13.9752L16.5693 14.0142L16.485 14.1633L16.4137 14.0985C16.4137 14.0985 16.1284 13.8844 15.9143 13.9428L15.5447 13.8066L15.3372 13.8326L15.5382 14.0012H15.6679L15.9403 14.1374L16.1867 14.2217L16.297 14.3384L16.1348 14.4292L16.1802 14.5459L16.4656 14.4422L16.5888 14.3838L16.6926 14.4811L16.8612 14.5848L17.0687 14.5524L17.2178 14.5913L17.1076 14.7275C17.1076 14.7275 17.3216 14.507 17.3476 14.4746C17.3865 14.4357 17.5551 14.2346 17.581 14.1892C17.6005 14.1374 17.7821 14.0466 17.7821 14.0466L17.8858 13.9039L18.0544 13.6315L17.9442 13.4046C17.9442 13.4046 17.8404 13.5018 17.7821 13.6315H17.8015Z" fill="url(#paint20_radial_39_8748)"/>
<path d="M10.642 14.6043C10.642 14.6043 10.5706 14.3643 10.3761 14.4162L10.3242 14.6237L10.4928 14.6821L10.642 14.6043Z" fill="url(#paint21_radial_39_8748)"/>
<path d="M8.85858 19.8572C8.89749 19.8832 8.84561 19.7924 8.77427 19.6497C8.79373 19.747 8.82615 19.8442 8.85858 19.8572Z" fill="url(#paint22_radial_39_8748)"/>
<path d="M14.1439 25.2139C14.1439 25.2139 13.9818 25.1426 13.8132 24.8637C13.677 24.721 13.5538 24.52 13.5538 24.52C13.5538 24.52 13.6057 24.293 13.6251 24.2606C13.6511 24.2087 13.4565 24.066 13.3203 23.9623C13.3657 23.8585 13.2879 23.4759 13.2425 23.4175C13.1906 23.3916 12.821 23.5991 12.821 23.5991L12.8728 23.7223C12.8728 23.7223 12.7626 23.8455 12.6783 23.9623C12.3151 23.8455 11.7769 23.1127 11.7769 23.1127C11.7769 23.1127 12.0168 23.0154 12.1335 23.0349C11.939 22.9441 11.3618 22.2826 11.3618 22.2826C11.3618 22.2826 11.3164 22.4253 11.3553 22.5096C11.271 22.4577 10.9597 22.2956 10.9597 22.2956L10.8819 22.4253C10.8819 22.4253 10.6744 22.4318 10.5771 22.2113C10.4928 21.9973 10.2723 21.9065 10.2723 21.9065L10.1037 22.0297C10.1037 22.0297 10.0713 21.8935 9.86376 21.8416C9.96104 21.9713 9.81188 21.9713 9.81188 21.9713C9.81188 21.9713 9.62382 21.8222 9.48763 21.7314C9.53303 21.7898 9.57194 21.8676 9.61733 21.9389C9.6303 21.9389 9.64327 21.9713 9.65624 21.9908C9.78594 22.1789 9.91565 22.3605 10.0713 22.5356C10.1102 22.5939 10.1491 22.6458 10.201 22.7042C10.3177 22.8468 10.4474 22.983 10.5836 23.1192C10.6549 23.1905 10.7133 23.2554 10.7846 23.3267C10.8949 23.4305 11.0246 23.5343 11.1543 23.6445C11.2386 23.7094 11.3294 23.7872 11.4137 23.8585C11.5304 23.9493 11.6472 24.0466 11.7574 24.1179C11.8677 24.1957 11.9714 24.28 12.0752 24.3514C12.1919 24.4227 12.3086 24.4811 12.4254 24.5589C12.5356 24.6302 12.6524 24.7016 12.7626 24.7534C12.9053 24.8248 13.0285 24.8896 13.1582 24.9415C13.2684 24.9869 13.3852 25.0388 13.4889 25.0842C13.6575 25.1555 13.8197 25.2074 13.9818 25.2723C14.0661 25.3047 14.1504 25.3241 14.2282 25.3501C14.2931 25.363 14.332 25.376 14.3839 25.3955C14.3968 25.3695 14.4033 25.3501 14.4033 25.3371C14.4033 25.2658 14.1504 25.2009 14.1504 25.2009L14.1439 25.2139Z" fill="url(#paint23_radial_39_8748)"/>
<path d="M9.81188 12.3021C9.81188 12.3021 9.17635 13.6769 9.09204 13.8131C9.31253 13.7807 9.31253 13.8585 9.31253 13.8585L8.891 14.6043L8.65754 15.2593L8.54729 15.5576L8.53432 15.8559L8.39165 16.2645L8.48244 17.0362L8.56675 16.3812C8.56675 16.3812 8.59269 15.817 8.63808 15.6289C8.68996 15.4474 8.83264 15.0842 8.83264 15.0842C8.83264 15.0842 8.95585 14.7599 9.01422 14.6951C9.07907 14.6627 9.15041 14.7794 9.13095 14.8378C9.1115 14.8896 9.1115 15.1361 9.1115 15.1361L9.12447 15.6549L9.01422 15.9791L9.18283 15.9467V15.83L9.40981 15.8689C9.40981 15.8689 9.68218 15.6419 9.8054 15.4409C9.92862 15.2528 10.0259 14.4292 10.1167 14.1244C10.3437 14.0077 10.6744 14.066 10.6744 14.066L10.6225 14.2995L10.7522 14.2736L11.0894 14.4616L11.3099 14.3449C11.3099 14.3449 11.4721 14.4422 11.511 14.4681C11.5564 14.507 11.8093 14.4551 11.8547 14.4681C11.9001 14.494 12.38 14.4292 12.38 14.4292L12.6653 14.2152C12.6653 14.2152 13.1582 14.0336 13.3268 13.9428C13.4824 13.8455 13.3787 13.6899 13.3787 13.6899L13.463 13.6121L13.6251 13.5796L13.5927 13.4694L13.7678 13.3462L13.9299 13.2489L14.1828 13.1192L14.4357 13.1062C14.4357 13.1062 14.2801 13.0284 14.2088 12.983C14.1504 12.9571 13.8845 12.756 13.8845 12.756L14.0272 12.5939C14.0272 12.5939 14.3255 12.5809 14.4357 12.555C14.5395 12.5291 14.7211 12.4772 14.7211 12.4772C14.7211 12.4772 14.4941 12.2826 14.4293 12.2632C14.3579 12.2632 14.2153 12.2372 14.2412 12.1918C14.2607 12.1594 14.4293 11.8092 14.4293 11.8092L14.5655 11.913C14.5655 11.913 15.0843 11.8611 15.1361 11.8806C15.175 11.8935 15.0907 11.9908 15.0064 12.0167C14.9156 12.0492 14.8378 12.2048 14.9546 12.1594C15.0778 12.1011 15.2594 12.1854 15.2594 12.1854L15.428 12.2826C15.428 12.2826 15.2983 12.4902 15.188 12.4902C15.2399 12.5874 15.4085 12.6134 15.3891 12.6912C15.3696 12.7625 15.2594 12.983 15.1686 12.9182C15.1102 12.9441 14.8573 13.3527 14.8573 13.3527C14.8573 13.3527 15.1491 13.3656 15.201 13.3656C15.2594 13.3786 15.5706 13.4499 15.5706 13.4499L15.6614 13.197C15.6614 13.197 15.8819 13.0219 15.8236 12.8468C15.7587 12.6588 15.7717 12.4448 15.8819 12.4837C15.9857 12.5226 16.271 12.5291 16.271 12.5291L16.3878 12.3605C16.3878 12.3605 16.7833 12.2372 16.8677 12.2372C16.9131 12.3929 16.9909 12.5096 16.9909 12.5096C16.9909 12.5096 17.367 12.5485 17.5291 12.5356C17.6913 12.5226 17.9312 12.2437 18.1258 12.2178C18.3203 12.1659 18.8002 12.1075 18.8002 12.1075C18.8002 12.1075 18.9299 11.6795 19.0272 11.6471C19.118 11.5887 19.2282 11.4396 19.1634 11.3488C19.1115 11.271 18.9883 11.1477 18.9105 11.1542C18.8262 11.1737 18.7743 11.0505 18.677 10.8819L18.9364 10.8689L19.6952 10.7651L20.1686 10.9532V10.8689L20.3631 10.2787L20.1686 10.0842L18.9234 9.57187L18.5927 9.35786L17.9442 9.43568L17.354 9.10494L16.5629 8.70287C16.5629 8.70287 16.4396 8.68341 16.2451 8.65747C13.5214 8.80663 11.1284 10.2269 9.66273 12.3345L9.70164 12.3929L9.8054 12.2826L9.81188 12.3021Z" fill="url(#paint24_radial_39_8748)"/>
<path d="M20.8884 10.4863L20.428 11.0894L20.6744 11.1867V11.2839L21.0441 11.4396L20.9922 11.3293L21.2191 11.0959L21.4786 11.2385L21.5499 11.3293L21.6536 11.3812L21.8741 11.3228L21.8352 11.4201L21.725 11.459L21.511 11.6665L21.2321 11.5887L20.9079 12.1594L20.9857 12.1918C20.9857 12.1918 21.057 12.5615 21.0116 12.6588C20.9597 12.7431 21.3424 12.7106 21.3424 12.7106L21.4137 12.5356L21.498 12.5096L21.5369 12.4253L21.6796 12.354L21.7574 12.4058L21.7769 12.2437L22.1141 12.5485L22.4837 13.2424L22.808 13.5796L22.9701 13.7872L22.9053 13.8391L22.821 13.7872L22.1919 12.9117L21.8547 12.5226L21.7509 12.6653L21.5239 12.6328L21.7833 12.8987L21.8093 12.782C21.8093 12.782 22.1271 13.1257 22.1465 13.2035C22.1725 13.2684 22.3605 13.6445 22.3605 13.6445L22.3929 13.865L22.4967 13.9169L22.4319 13.9752L22.6977 14.734L22.5097 15.3177L22.7496 15.1361L23.2425 15.2723L23.1971 15.4538L23.3657 15.5641L23.4695 15.5317C23.4695 15.5317 23.8067 15.9986 23.7483 16.1931L24.7276 16.459L24.987 16.4461C24.987 16.4461 25.0907 16.3293 25.1491 16.0829C25.0129 15.0129 24.6692 13.9947 24.1699 13.0868C24.0466 12.8728 23.9234 12.6588 23.7872 12.4577C23.7678 12.4318 23.7548 12.4188 23.7418 12.3929C23.6057 12.1918 23.463 12.0038 23.3268 11.8287C23.2814 11.7703 23.2295 11.7119 23.1841 11.6665C23.0544 11.5044 22.9182 11.3618 22.7821 11.232C22.7172 11.1672 22.6394 11.0959 22.568 11.0375C22.4383 10.9078 22.3151 10.7975 22.1854 10.6808C22.1011 10.616 22.0103 10.5381 21.9195 10.4668C21.8158 10.3955 21.7185 10.3241 21.6147 10.2398H21.1413L20.8754 10.4992L20.8884 10.4863ZM23.5278 13.5407H23.3981L23.2036 13.4564L23.2814 13.9752C23.2814 13.9752 23.0869 13.6121 23.0869 13.5278C23.0869 13.4435 23.035 13.4889 23.035 13.4889L22.9442 13.5926L22.8145 13.3073L22.9636 13.3786C23.0998 13.4629 23.2425 13.21 23.2425 13.21L23.5214 13.5343L23.5278 13.5407ZM22.7561 11.8222C22.8274 11.8806 22.8793 11.7638 22.8469 11.6147C23.035 11.7379 23.3073 12.4253 23.3073 12.4253L23.2944 12.4966L23.1647 12.4383L23.0544 12.5096L22.8988 12.4383C22.8988 12.4383 22.9247 12.5615 22.9377 12.6328C22.9442 12.7171 22.6977 12.6588 22.6977 12.6588L22.7496 12.4448L22.5356 12.0751C22.4902 11.9454 22.6977 11.7833 22.7561 11.8352V11.8222Z" fill="url(#paint25_radial_39_8748)"/>
<path d="M8.41759 18.197C8.48244 17.9895 8.39165 17.5226 8.39165 17.5226L8.31383 17.0038V15.6225C8.22304 16.1283 8.16467 16.6471 8.16467 17.1789C8.16467 17.5939 8.1971 17.983 8.26195 18.3786C8.30734 18.3656 8.37868 18.3267 8.41759 18.1905V18.197Z" fill="url(#paint26_radial_39_8748)"/>
<path d="M8.70942 19.2217L8.56675 19.0141L8.29437 18.5991C8.30734 18.6769 8.31383 18.7483 8.32031 18.8326C8.43705 19.1049 8.63808 19.4422 8.7613 19.6562C8.71591 19.4811 8.70942 19.2282 8.70942 19.2282V19.2217Z" fill="url(#paint27_radial_39_8748)"/>
<path d="M10.6225 17.2308L10.2464 17.3734L10.5252 17.4188L10.6225 17.2308Z" fill="url(#paint28_radial_39_8748)"/>
<path d="M9.21526 20.402C9.09853 20.4279 9.81188 21.0116 9.97401 21.044C9.78594 20.7846 9.44223 20.3695 9.21526 20.402Z" fill="url(#paint29_radial_39_8748)"/>
<path d="M10.3696 19.4551L9.96753 19.1828L9.61733 19.6108C9.61733 19.6108 9.61733 19.8118 9.63679 19.935C9.65624 20.0518 9.546 20.0907 9.546 20.0907L9.77297 20.2982L9.79891 20.0777L9.88971 19.9545L9.91565 20.2269L9.96753 20.4668L9.9351 20.5706L10.175 20.5965C10.175 20.5965 10.1361 20.376 10.0907 20.3566C10.0518 20.3306 10.0907 20.1231 10.0907 20.1231L10.3177 19.9285L10.2529 19.8118C10.2529 19.8118 10.175 19.8572 10.1037 19.8442C10.0583 19.8118 10.0064 19.7599 9.9805 19.6173C9.90916 19.28 10.2075 19.494 10.2788 19.5784C10.3631 19.6497 10.5642 19.8767 10.7003 19.747C10.5771 19.6951 10.3631 19.4551 10.3631 19.4551H10.3696Z" fill="url(#paint30_radial_39_8748)"/>
<path d="M10.9662 20.9986L11.2645 21.2256H11.3359L10.9792 20.9013L10.9662 20.9986Z" fill="url(#paint31_radial_39_8748)"/>
<path d="M9.46817 19.066L9.58491 19.1374L9.68218 18.9298L9.85728 18.9947L9.77297 18.5213L9.91565 18.2749H10.2334L10.0259 17.9895L10.0843 17.9117L9.95456 17.7171L9.77297 17.7366L9.68218 17.8793L9.38387 17.8403C9.38387 17.8403 9.13744 17.7366 8.97531 17.8274C8.92343 17.7431 8.77427 17.7171 8.77427 17.7171C8.77427 17.7171 8.77427 18.0673 8.82615 18.2165C8.78076 18.3008 8.78076 18.6315 8.90397 18.8196C9.0207 18.9104 9.14392 19.3189 9.14392 19.3189L9.31902 19.306L9.47466 19.066H9.46817Z" fill="url(#paint32_radial_39_8748)"/>
<path d="M68.9169 19.1505H57.808V33.8457H48.4889V0.603165H57.808V14.2478H68.9169V0.603165H78.2879V33.8522H68.9169V19.1505Z" fill="white"/>
<path d="M116.764 33.8457V0.603165H126.089V10.3697H138.761C140.473 10.3697 145.434 10.6096 145.434 17.0623V27.1531C145.434 28.9106 144.935 33.8457 138.761 33.8457H116.764ZM136.083 18.1907C136.083 17.3087 136.29 14.8639 133.009 14.8639H126.083V29.3905H133.009C136.057 29.3905 136.083 26.8807 136.083 25.9988V18.1842V18.1907Z" fill="white"/>
<path d="M149.955 33.8457V14.812H159.254V33.8457H149.955Z" fill="white"/>
<path d="M164.338 0.603165H173.664V33.8522H164.338V0.603165Z" fill="white"/>
<path d="M200.143 33.8457H184.825C183.035 33.8457 178.152 33.3593 178.152 27.1531V17.0623C178.152 11.0831 183.08 10.3697 184.825 10.3697H200.143C201.855 10.3697 206.809 11.0831 206.809 17.0623V27.1531C206.809 33.3593 201.881 33.8457 200.143 33.8457ZM197.445 17.6589C197.445 16.7705 197.354 14.8639 194.131 14.8639H190.778C187.763 14.8639 187.445 16.8678 187.445 17.6589V26.537C187.445 26.9845 187.503 29.3969 190.778 29.3969H194.131C197.172 29.3969 197.445 27.4125 197.445 26.537V17.6589Z" fill="white"/>
<path d="M230.655 33.8457V17.9054C230.655 14.8963 228.204 14.8639 227.322 14.8639H220.655V33.8457H211.342V10.3632H233.327C239.241 10.3632 240 15.3502 240 17.0558V33.8457H230.655Z" fill="white"/>
<path d="M159.248 8.17126C159.248 9.12457 158.469 9.89629 157.523 9.89629H151.686C150.733 9.89629 149.955 9.12457 149.955 8.17126V2.3282C149.955 1.37489 150.726 0.59668 151.686 0.59668H157.523C158.469 0.59668 159.248 1.37489 159.248 2.3282V8.17126Z" fill="white"/>
<path d="M102.568 26.5305C102.568 27.406 102.296 29.3905 99.2541 29.3905H95.8949C92.6069 29.3905 92.568 26.9715 92.568 26.5305V10.3632H83.2684V27.1531C83.2684 33.3593 88.1517 33.8457 89.9286 33.8457H105.259C106.997 33.8457 111.932 33.3593 111.932 27.1531V10.3632H102.562V26.5305H102.568Z" fill="white"/>
<path d="M31.6991 0H19.3126C18.3788 0 17.6135 0.745785 17.6135 1.68612V7.14008C22.7692 7.60052 26.8029 11.9326 26.8029 17.1984C26.8029 22.4643 22.7627 26.7964 17.6135 27.2568V32.7108C17.6135 33.6446 18.3723 34.3969 19.3126 34.3969H31.6991C32.646 34.3969 33.3917 33.6446 33.3917 32.7108V1.68612C33.3917 0.75227 32.646 0 31.6991 0Z" fill="#DFD800"/>
</g>
<defs>
<radialGradient id="paint0_radial_39_8748" cx="0" cy="0" r="1" gradientUnits="userSpaceOnUse" gradientTransform="translate(15.2075 15.175) scale(10.8171)">
<stop stop-color="#A3D4DF"/>
<stop offset="0.18" stop-color="#74C5DD"/>
<stop offset="0.59" stop-color="#00A3DB"/>
<stop offset="1" stop-color="#0081C1"/>
</radialGradient>
<radialGradient id="paint1_radial_39_8748" cx="0" cy="0" r="1" gradientUnits="userSpaceOnUse" gradientTransform="translate(16.6342 15.7134) scale(8.37227 8.37225)">
<stop stop-color="#F1E98B"/>
<stop offset="0.42" stop-color="#C2D770"/>
<stop offset="1" stop-color="#7BBD47"/>
</radialGradient>
<radialGradient id="paint2_radial_39_8748" cx="0" cy="0" r="1" gradientUnits="userSpaceOnUse" gradientTransform="translate(16.7639 18.878) scale(8.57323 8.57328)">
<stop stop-color="#F1E98B"/>
<stop offset="0.42" stop-color="#C2D770"/>
<stop offset="1" stop-color="#7BBD47"/>
</radialGradient>
<radialGradient id="paint3_radial_39_8748" cx="0" cy="0" r="1" gradientUnits="userSpaceOnUse" gradientTransform="translate(16.3488 18.3396) scale(7.89881 7.89883)">
<stop stop-color="#F1E98B"/>
<stop offset="0.42" stop-color="#C2D770"/>
<stop offset="1" stop-color="#7BBD47"/>
</radialGradient>
<radialGradient id="paint4_radial_39_8748" cx="0" cy="0" r="1" gradientUnits="userSpaceOnUse" gradientTransform="translate(16.7769 17.918) scale(8.58628 8.58627)">
<stop stop-color="#F1E98B"/>
<stop offset="0.42" stop-color="#C2D770"/>
<stop offset="1" stop-color="#7BBD47"/>
</radialGradient>
<radialGradient id="paint5_radial_39_8748" cx="0" cy="0" r="1" gradientUnits="userSpaceOnUse" gradientTransform="translate(20.2723 15.2462) scale(14.1634 14.1634)">
<stop stop-color="#F1E98B"/>
<stop offset="0.42" stop-color="#C2D770"/>
<stop offset="1" stop-color="#7BBD47"/>
</radialGradient>
<radialGradient id="paint6_radial_39_8748" cx="0" cy="0" r="1" gradientUnits="userSpaceOnUse" gradientTransform="translate(16.7055 17.315) scale(8.476 8.47599)">
<stop stop-color="#F1E98B"/>
<stop offset="0.42" stop-color="#C2D770"/>
<stop offset="1" stop-color="#7BBD47"/>
</radialGradient>
<radialGradient id="paint7_radial_39_8748" cx="0" cy="0" r="1" gradientUnits="userSpaceOnUse" gradientTransform="translate(16.6861 11.3424) scale(8.39171 8.39171)">
<stop stop-color="#F1E98B"/>
<stop offset="0.42" stop-color="#C2D770"/>
<stop offset="1" stop-color="#7BBD47"/>
</radialGradient>
<radialGradient id="paint8_radial_39_8748" cx="0" cy="0" r="1" gradientUnits="userSpaceOnUse" gradientTransform="translate(16.6601 18.7548) scale(8.41115 8.41119)">
<stop stop-color="#F1E98B"/>
<stop offset="0.42" stop-color="#C2D770"/>
<stop offset="1" stop-color="#7BBD47"/>
</radialGradient>
<radialGradient id="paint9_radial_39_8748" cx="0" cy="0" r="1" gradientUnits="userSpaceOnUse" gradientTransform="translate(16.8288 12.8274) scale(8.67057 8.67054)">
<stop stop-color="#F1E98B"/>
<stop offset="0.42" stop-color="#C2D770"/>
<stop offset="1" stop-color="#7BBD47"/>
</radialGradient>
<radialGradient id="paint10_radial_39_8748" cx="0" cy="0" r="1" gradientUnits="userSpaceOnUse" gradientTransform="translate(16.6472 10.2788) scale(8.30741 8.30739)">
<stop stop-color="#F1E98B"/>
<stop offset="0.42" stop-color="#C2D770"/>
<stop offset="1" stop-color="#7BBD47"/>
</radialGradient>
<radialGradient id="paint11_radial_39_8748" cx="0" cy="0" r="1" gradientUnits="userSpaceOnUse" gradientTransform="translate(16.6991 9.13105) scale(8.38521 8.38518)">
<stop stop-color="#F1E98B"/>
<stop offset="0.42" stop-color="#C2D770"/>
<stop offset="1" stop-color="#7BBD47"/>
</radialGradient>
<radialGradient id="paint12_radial_39_8748" cx="0" cy="0" r="1" gradientUnits="userSpaceOnUse" gradientTransform="translate(16.8093 29.948) scale(8.19066 8.19064)">
<stop stop-color="#F1E98B"/>
<stop offset="0.42" stop-color="#C2D770"/>
<stop offset="1" stop-color="#7BBD47"/>
</radialGradient>
<radialGradient id="paint13_radial_39_8748" cx="0" cy="0" r="1" gradientUnits="userSpaceOnUse" gradientTransform="translate(16.8158 27.8728) scale(8.47601 8.476)">
<stop stop-color="#F1E98B"/>
<stop offset="0.42" stop-color="#C2D770"/>
<stop offset="1" stop-color="#7BBD47"/>
</radialGradient>
<radialGradient id="paint14_radial_39_8748" cx="0" cy="0" r="1" gradientUnits="userSpaceOnUse" gradientTransform="translate(17.1271 29.5006) scale(8.3009 8.30089)">
<stop stop-color="#F1E98B"/>
<stop offset="0.42" stop-color="#C2D770"/>
<stop offset="1" stop-color="#7BBD47"/>
</radialGradient>
<radialGradient id="paint15_radial_39_8748" cx="0" cy="0" r="1" gradientUnits="userSpaceOnUse" gradientTransform="translate(16.7444 20.1101) scale(8.5214 8.5214)">
<stop stop-color="#F1E98B"/>
<stop offset="0.42" stop-color="#C2D770"/>
<stop offset="1" stop-color="#7BBD47"/>
</radialGradient>
<radialGradient id="paint16_radial_39_8748" cx="0" cy="0" r="1" gradientUnits="userSpaceOnUse" gradientTransform="translate(16.712 11.4267) scale(8.72892 8.72895)">
<stop stop-color="#F1E98B"/>
<stop offset="0.42" stop-color="#C2D770"/>
<stop offset="1" stop-color="#7BBD47"/>
</radialGradient>
<radialGradient id="paint17_radial_39_8748" cx="0" cy="0" r="1" gradientUnits="userSpaceOnUse" gradientTransform="translate(16.6666 7.05568) scale(8.50195 8.50195)">
<stop stop-color="#F1E98B"/>
<stop offset="0.42" stop-color="#C2D770"/>
<stop offset="1" stop-color="#7BBD47"/>
</radialGradient>
<radialGradient id="paint18_radial_39_8748" cx="0" cy="0" r="1" gradientUnits="userSpaceOnUse" gradientTransform="translate(16.6861 9.11796) scale(8.48897 8.48898)">
<stop stop-color="#F1E98B"/>
<stop offset="0.42" stop-color="#C2D770"/>
<stop offset="1" stop-color="#7BBD47"/>
</radialGradient>
<radialGradient id="paint19_radial_39_8748" cx="0" cy="0" r="1" gradientUnits="userSpaceOnUse" gradientTransform="translate(16.6601 23.3658) scale(8.46304 8.46305)">
<stop stop-color="#F1E98B"/>
<stop offset="0.42" stop-color="#C2D770"/>
<stop offset="1" stop-color="#7BBD47"/>
</radialGradient>
<radialGradient id="paint20_radial_39_8748" cx="0" cy="0" r="1" gradientUnits="userSpaceOnUse" gradientTransform="translate(16.699 11.005) scale(8.47601 8.476)">
<stop stop-color="#F1E98B"/>
<stop offset="0.42" stop-color="#C2D770"/>
<stop offset="1" stop-color="#7BBD47"/>
</radialGradient>
<radialGradient id="paint21_radial_39_8748" cx="0" cy="0" r="1" gradientUnits="userSpaceOnUse" gradientTransform="translate(16.7574 11.9195) scale(8.55382)">
<stop stop-color="#F1E98B"/>
<stop offset="0.42" stop-color="#C2D770"/>
<stop offset="1" stop-color="#7BBD47"/>
</radialGradient>
<radialGradient id="paint22_radial_39_8748" cx="0" cy="0" r="1" gradientUnits="userSpaceOnUse" gradientTransform="translate(18.1063 22.5616) scale(9.87031 9.87035)">
<stop stop-color="#F1E98B"/>
<stop offset="0.42" stop-color="#C2D770"/>
<stop offset="1" stop-color="#7BBD47"/>
</radialGradient>
<radialGradient id="paint23_radial_39_8748" cx="0" cy="0" r="1" gradientUnits="userSpaceOnUse" gradientTransform="translate(16.8093 30.1816) scale(8.476 8.47601)">
<stop stop-color="#F1E98B"/>
<stop offset="0.42" stop-color="#C2D770"/>
<stop offset="1" stop-color="#7BBD47"/>
</radialGradient>
<radialGradient id="paint24_radial_39_8748" cx="0" cy="0" r="1" gradientUnits="userSpaceOnUse" gradientTransform="translate(16.7055 8.57316) scale(8.46952)">
<stop stop-color="#F1E98B"/>
<stop offset="0.42" stop-color="#C2D770"/>
<stop offset="1" stop-color="#7BBD47"/>
</radialGradient>
<radialGradient id="paint25_radial_39_8748" cx="0" cy="0" r="1" gradientUnits="userSpaceOnUse" gradientTransform="translate(16.699 17.1334) scale(8.46952)">
<stop stop-color="#F1E98B"/>
<stop offset="0.42" stop-color="#C2D770"/>
<stop offset="1" stop-color="#7BBD47"/>
</radialGradient>
<radialGradient id="paint26_radial_39_8748" cx="0" cy="0" r="1" gradientUnits="userSpaceOnUse" gradientTransform="translate(17.354 16.764) scale(9.11153 9.11154)">
<stop stop-color="#F1E98B"/>
<stop offset="0.42" stop-color="#C2D770"/>
<stop offset="1" stop-color="#7BBD47"/>
</radialGradient>
<radialGradient id="paint27_radial_39_8748" cx="0" cy="0" r="1" gradientUnits="userSpaceOnUse" gradientTransform="translate(16.7445 21.0894) scale(8.5214 8.5214)">
<stop stop-color="#F1E98B"/>
<stop offset="0.42" stop-color="#C2D770"/>
<stop offset="1" stop-color="#7BBD47"/>
</radialGradient>
<radialGradient id="paint28_radial_39_8748" cx="0" cy="0" r="1" gradientUnits="userSpaceOnUse" gradientTransform="translate(16.7185 17.5227) scale(8.49545 8.49549)">
<stop stop-color="#F1E98B"/>
<stop offset="0.42" stop-color="#C2D770"/>
<stop offset="1" stop-color="#7BBD47"/>
</radialGradient>
<radialGradient id="paint29_radial_39_8748" cx="0" cy="0" r="1" gradientUnits="userSpaceOnUse" gradientTransform="translate(16.8158 24.371) scale(8.60571 8.60572)">
<stop stop-color="#F1E98B"/>
<stop offset="0.42" stop-color="#C2D770"/>
<stop offset="1" stop-color="#7BBD47"/>
</radialGradient>
<radialGradient id="paint30_radial_39_8748" cx="0" cy="0" r="1" gradientUnits="userSpaceOnUse" gradientTransform="translate(16.6731 22.6523) scale(8.43709 8.4371)">
<stop stop-color="#F1E98B"/>
<stop offset="0.42" stop-color="#C2D770"/>
<stop offset="1" stop-color="#7BBD47"/>
</radialGradient>
<radialGradient id="paint31_radial_39_8748" cx="0" cy="0" r="1" gradientUnits="userSpaceOnUse" gradientTransform="translate(16.7315 25.0128) scale(8.50194 8.50195)">
<stop stop-color="#F1E98B"/>
<stop offset="0.42" stop-color="#C2D770"/>
<stop offset="1" stop-color="#7BBD47"/>
</radialGradient>
<radialGradient id="paint32_radial_39_8748" cx="0" cy="0" r="1" gradientUnits="userSpaceOnUse" gradientTransform="translate(16.699 19.9027) scale(8.46304 8.46304)">
<stop stop-color="#F1E98B"/>
<stop offset="0.42" stop-color="#C2D770"/>
<stop offset="1" stop-color="#7BBD47"/>
</radialGradient>
<clipPath id="clip0_39_8748">
<rect width="240" height="34.3969" fill="white"/>
</clipPath>
</defs>
</svg>
