<svg width="20" height="20" viewBox="0 0 20 20" fill="none" xmlns="http://www.w3.org/2000/svg">
<rect width="20" height="20" rx="10" fill="#C925FF"/>
<path d="M6.50971 14.4416C6.44281 14.8505 6.87393 15.1587 7.23924 14.963L9.80761 13.5873C9.95267 13.5096 10.1267 13.5082 10.2729 13.5837L12.8623 14.9195C13.2306 15.1095 13.6569 14.7947 13.5837 14.3868L13.069 11.519C13.04 11.357 13.0925 11.1911 13.2094 11.0753L15.28 9.02569C15.5745 8.73414 15.4068 8.23142 14.9963 8.175L12.1098 7.77836C11.9467 7.75596 11.8052 7.65476 11.7312 7.50774L10.4217 4.90508C10.2355 4.53486 9.70553 4.53895 9.525 4.912L8.25583 7.5346C8.18414 7.68273 8.04415 7.78611 7.88148 7.81103L5.00142 8.25225C4.59178 8.315 4.43192 8.82024 4.7309 9.10721L6.83289 11.1248C6.95162 11.2387 7.00666 11.4038 6.9801 11.5662L6.50971 14.4416Z" fill="white"/>
</svg>
