<svg width="10" height="10" viewBox="0 0 10 10" fill="none" xmlns="http://www.w3.org/2000/svg">
<path d="M1.73754 8.85821C1.67063 9.2672 2.10176 9.57537 2.46707 9.37969L4.72767 8.16878C4.87273 8.09108 5.04675 8.08973 5.193 8.16518L7.47211 9.34096C7.8404 9.53096 8.26668 9.21618 8.19348 8.80829L7.74049 6.2841C7.71142 6.12212 7.76392 5.95621 7.88087 5.84044L9.70331 4.0364C9.99783 3.74485 9.83019 3.24213 9.41962 3.18571L6.87902 2.8366C6.71598 2.81419 6.5744 2.71299 6.50043 2.56598L5.34787 0.275194C5.1616 -0.0950183 4.63167 -0.0909286 4.45115 0.282114L3.33406 2.59045C3.26237 2.73858 3.12238 2.84196 2.95971 2.86688L0.424761 3.25523C0.0151238 3.31798 -0.144737 3.82321 0.154242 4.11018L2.00435 5.88597C2.12308 5.99993 2.17813 6.16501 2.15156 6.32742L1.73754 8.85821Z" fill="#C925FF"/>
</svg>
